<?xml version="1.0" encoding="utf-8"?>
<!-- Generator: Adobe Illustrator 16.0.0, SVG Export Plug-In . SVG Version: 6.00 Build 0)  -->
<!DOCTYPE svg PUBLIC "-//W3C//DTD SVG 1.1//EN" "http://www.w3.org/Graphics/SVG/1.1/DTD/svg11.dtd">
<svg version="1.1" id="Layer_1" xmlns="http://www.w3.org/2000/svg" xmlns:xlink="http://www.w3.org/1999/xlink" x="0px" y="0px"
	 width="512px" height="512px" viewBox="0 0 512 512" enable-background="new 0 0 512 512" xml:space="preserve">
<g id="manager_1_">
	<polygon fill="#5D9CEC" points="481.992,407.5 426.492,389 352.992,347 297.992,372 210.242,375 156.492,352.5 80.492,392 
		31.492,411 24.992,501 488.992,501 	"/>
	<rect x="331.664" y="461.344" fill="#F5F7FA" width="87.328" height="48.672"/>
	<polygon fill="#F5F7FA" points="297.664,505 296.32,480.328 291.32,389.328 284.664,342.672 227.32,347 213.664,364 223.992,406 
		206.664,505 	"/>
	<polygon fill="#4A89DC" points="170.992,305.016 156.992,347 196.992,372.672 227.992,345.344 	"/>
	<polygon fill="#4A89DC" points="341.664,308.016 283.992,341.344 311.992,372.672 358.992,347 	"/>
	<polygon fill="#EAC6BB" points="373.992,166.672 358.992,131 294.992,115 205.992,162.672 138.992,166.672 138.992,238.453 
		181.992,311 255.992,347 290.992,339 345.992,300 384.992,206 	"/>
	<polygon fill="#FFCE54" points="343.992,52.672 306.664,18.672 243.664,14.672 167.336,30.672 137.992,68.016 117.336,157.344 
		151.992,162.672 217.992,153.344 289.336,122.672 332.664,118.016 341.992,96.672 369.992,72.672 	"/>
	<polygon fill="#FFCE54" points="367.352,74.938 336.32,109.656 366.664,152.672 384.664,166.672 390.82,110.781 	"/>
	<path d="M460.227,386.359l-1.828-0.516c-26.469-7.125-35.422-13.938-47.203-18.422c-41.797-15.922-52.672-27.406-55.453-32.828
		c-0.094-0.188-0.172-0.406-0.266-0.594l-0.266-36.531c22.359-29.938,38.344-67.281,38.344-105.969c0,0,15.094-64.328-21-124.859
		l-0.016-0.266c-0.031,0-0.078,0-0.141,0c-7.812-13.062-18.016-25.938-31.297-37.969C327.211,15.844,292.945,0,251.617,0
		c-28.297,0-59.906,7.422-90.547,28.406c-59.438,40.719-53.438,143.375-53.438,143.375s4.156,1.062,11.641,2.031
		c-0.547,5.75-0.828,11.656-0.828,17.688c0,38.688,15.984,76.031,38.344,105.969L156.523,334c-0.094,0.188-0.172,0.406-0.266,0.594
		c-2.781,5.422-13.656,16.906-55.453,32.828c-11.781,4.484-20.734,11.297-47.203,18.422l-1.828,0.516
		c-24.094,7.969-40.297,30.312-40.297,55.531V512h192h52.531h54.125h10.672h106.672h73.047v-70.109
		C500.523,416.672,484.32,394.328,460.227,386.359z M334.148,334.141l0.031,4.516l1.766,3.938c0.156,0.344,0.422,0.984,0.812,1.734
		c0.516,1,1.109,1.984,1.734,2.953l-25.578,13.375l-13.688-11.594c11.75-6.922,23.641-16.188,34.828-27.25L334.148,334.141z
		 M275.852,394.656h-39.703l-6.156-30.812l5.188-4.406c7.297,2.406,14.312,3.688,20.828,3.688c6.844,0,14.266-1.438,21.984-4.078
		l4.25,3.609L275.852,394.656z M363.32,126.656c-4.672-5.297-9.906-9.625-15.609-12.969c4.312-10.469,9.75-16.734,14.578-20.5
		c5.875,13.375,9.828,27.875,11.734,43.156c0.297,2.406,0.547,4.719,0.734,7C371.32,136.922,367.555,131.438,363.32,126.656z
		 M133.18,118.5c3.109-15.719,7.703-29.594,13.703-41.266C153.82,63.688,162.648,53.188,173.117,46
		c23.906-16.375,50.328-24.656,78.5-24.656c36.344,0,65.391,14.031,75.172,22.875c9.938,9,18.422,19.047,25.391,30
		c-8.469,5.688-17.844,15.438-24.547,32.156c-3.5-0.594-7.109-0.906-10.797-0.906c-15.922,0-33.078,5.391-52.453,16.469
		c-46.672,26.656-89.844,32.25-117.844,32.25c-6.703,0-12.594-0.312-17.484-0.75C129.477,144.094,130.57,131.75,133.18,118.5z
		 M140.555,175.438c1.938,0.062,3.922,0.094,5.984,0.094c31.219,0,78.016-6.281,128.422-35.078
		c16.969-9.703,30.688-13.641,41.875-13.641c26.859,0,39.031,22.781,46.344,43.406c2.5,7.062,5.641,11.938,8.922,15.266
		c0.078,1.984,0.125,3.984,0.125,6.016c0,35.125-15.984,73.5-43.859,105.25c-12.25,13.969-25.969,25.641-39.672,33.781
		c-12.25,7.25-23.859,11.25-32.688,11.25c-8.844,0-20.453-4-32.703-11.25c-13.703-8.156-27.422-19.812-39.672-33.781
		c-27.875-31.75-43.859-70.125-43.859-105.25C139.773,186.031,140.039,180.688,140.555,175.438z M213.742,349.625l-13.016,11.031
		l-26.812-14.016c0.469-0.766,0.922-1.531,1.328-2.312c0.375-0.734,0.656-1.359,0.797-1.734l1.781-3.938l0.031-4.516l0.094-12.328
		C189.445,333.188,201.68,342.656,213.742,349.625z M32.805,490.656v-48.766c0-15.906,10.172-29.984,25.328-35.156l1.188-0.344
		c19.953-5.375,30.969-10.641,39.828-14.891c3.422-1.625,6.375-3.062,9.25-4.156c15.75-6,35.406-14.281,49.859-24.812l45.297,23.688
		l7.828-6.625l5.516,27.562l-10.688,83.5H32.805z M256.008,490.656h-28.297L237.273,416h37.422l10.797,74.656H256.008z
		 M342.133,490.656v-21.312h64v21.312H342.133z M479.195,490.656h-51.719V448h-32c0-5.891-4.781-10.656-10.672-10.656h-21.328
		c-5.891,0-10.672,4.766-10.672,10.656h-32v42.656h-13.75l-12.031-83.125l5.828-29.125l9.234,7.812l44.344-23.203
		c14.391,10.312,33.688,18.438,49.188,24.344c2.859,1.078,5.812,2.516,9.234,4.141c8.859,4.25,19.875,9.516,39.828,14.891
		l1.188,0.344c15.172,5.172,25.328,19.25,25.328,35.156V490.656z"/>
</g>
</svg>
